<?xml version="1.0" encoding="UTF-8" standalone="no"?>
<svg
   viewBox="0 0 288 288"
   height="288"
   width="288"
   xml:space="preserve"
   id="svg832"
   version="1.1"><metadata
     id="metadata838"></metadata><defs
     id="defs836"><clipPath
       id="clipPath848"
       clipPathUnits="userSpaceOnUse"><path
         id="path846"
         d="M 0,216 H 216 V 0 H 0 Z" /></clipPath></defs><sodipodi:namedview
     showgrid="false"
     id="namedview834"
     guidetolerance="10"
     gridtolerance="10"
     objecttolerance="10"
     borderopacity="1"
     bordercolor="#666666"
     pagecolor="#ffffff" /><g
     transform="matrix(1.3333333,0,0,-1.3333333,0,288)"
     id="g840"><g
       id="g842"><g
         clip-path="url(#clipPath848)"
         id="g844"><g
           transform="translate(190.8994,101.6504)"
           id="g850"><path
             id="path852"
             d="m 0,0 c -1.066,-0.234 -2.1,-0.617 -3.1,-1.15 -1,-0.534 -1.849,-1.267 -2.549,-2.2 -0.701,-0.934 -1.05,-2.134 -1.05,-3.599 V -27.55 c 0,-2.333 -0.468,-4.366 -1.401,-6.1 -0.934,-1.733 -2.067,-3.165 -3.4,-4.299 -1.334,-1.133 -2.734,-1.967 -4.199,-2.5 -1.468,-0.533 -2.735,-0.801 -3.801,-0.801 h -9.1 v 9 h 5.5 c 1.266,0 2.266,0.217 3,0.65 0.733,0.434 1.3,1 1.701,1.7 0.399,0.701 0.649,1.467 0.75,2.3 0.099,0.834 0.149,1.618 0.149,2.35 v 19.5 c 0,2 0.4,3.666 1.2,5 0.8,1.333 1.75,2.383 2.851,3.15 1.099,0.766 2.232,1.316 3.399,1.651 1.166,0.332 2.151,0.564 2.95,0.699 v 0.2 c -0.799,0.066 -1.784,0.234 -2.95,0.5 -1.167,0.266 -2.3,0.783 -3.399,1.55 -1.101,0.766 -2.051,1.866 -2.851,3.3 -0.8,1.433 -1.2,3.35 -1.2,5.75 v 18.9 c 0,0.733 -0.05,1.516 -0.149,2.35 -0.101,0.833 -0.351,1.6 -0.75,2.3 -0.401,0.7 -0.968,1.266 -1.701,1.7 -0.734,0.433 -1.734,0.65 -3,0.65 h -5.5 v 9 h 9.1 c 1.066,0 2.333,-0.267 3.801,-0.8 1.465,-0.534 2.865,-1.367 4.199,-2.5 1.333,-1.134 2.466,-2.567 3.4,-4.3 0.933,-1.734 1.401,-3.767 1.401,-6.1 v -19.8 c 0,-1.6 0.349,-2.934 1.05,-4 0.7,-1.067 1.549,-1.9 2.549,-2.5 C -2.1,10.35 -1.066,9.933 0,9.7 1.066,9.466 1.966,9.35 2.7,9.35 v -9 C 1.966,0.35 1.066,0.232 0,0 m -50.925,-25.88 c -3.256,-5.646 -7.738,-10.126 -13.447,-13.447 -5.712,-3.319 -11.888,-4.981 -18.527,-4.981 -6.643,0 -12.819,1.662 -18.528,4.981 -5.712,3.321 -10.194,7.801 -13.447,13.447 -3.256,5.644 -4.881,11.785 -4.881,18.428 0,5.444 1.127,10.624 3.387,15.539 1.46,3.054 4.249,7.502 8.367,13.348 3.717,5.31 6.44,9.494 8.168,12.55 3.054,5.311 5.379,10.758 6.973,16.336 0.927,3.188 2.82,5.379 5.677,6.575 2.855,1.195 5.709,1.161 8.567,-0.1 2.854,-1.264 4.747,-3.421 5.678,-6.475 1.724,-5.712 4.115,-11.29 7.171,-16.734 1.725,-3.057 4.449,-7.24 8.168,-12.551 3.985,-5.712 6.705,-10.029 8.168,-12.949 2.257,-4.915 3.387,-10.095 3.387,-15.539 0,-6.643 -1.628,-12.784 -4.881,-18.428 m -86.273,67.83 h -5.5 c -1.268,0 -2.268,-0.217 -3,-0.65 -0.735,-0.434 -1.3,-1 -1.7,-1.7 -0.401,-0.7 -0.651,-1.467 -0.75,-2.3 -0.1,-0.834 -0.151,-1.617 -0.151,-2.35 v -19.5 c 0,-2 -0.399,-3.667 -1.199,-5 -0.801,-1.334 -1.75,-2.384 -2.851,-3.15 -1.099,-0.767 -2.234,-1.334 -3.399,-1.7 -1.168,-0.368 -2.15,-0.584 -2.95,-0.65 v -0.2 c 0.8,-0.066 1.782,-0.234 2.95,-0.5 1.165,-0.268 2.3,-0.784 3.399,-1.55 1.101,-0.766 2.05,-1.867 2.851,-3.3 0.8,-1.434 1.199,-3.349 1.199,-5.75 v -18.9 c 0,-0.732 0.051,-1.516 0.151,-2.35 0.099,-0.833 0.349,-1.599 0.75,-2.3 0.4,-0.7 0.965,-1.266 1.7,-1.7 0.732,-0.433 1.732,-0.65 3,-0.65 h 5.5 v -9 h -9.101 c -1.066,0 -2.334,0.268 -3.8,0.801 -1.466,0.533 -2.867,1.367 -4.2,2.5 -1.334,1.134 -2.467,2.566 -3.399,4.299 -0.935,1.734 -1.401,3.767 -1.401,6.1 v 19.8 c 0,1.6 -0.367,2.934 -1.099,4 -0.735,1.066 -1.601,1.9 -2.601,2.5 -1,0.6 -2.034,1.016 -3.099,1.25 -1.068,0.232 -1.935,0.35 -2.6,0.35 v 9 c 0.665,0 1.532,0.1 2.6,0.3 1.065,0.2 2.099,0.583 3.099,1.15 1,0.566 1.866,1.316 2.601,2.25 0.732,0.933 1.099,2.133 1.099,3.6 v 20.6 c 0,2.333 0.466,4.366 1.401,6.1 0.932,1.733 2.065,3.166 3.399,4.3 1.333,1.133 2.734,1.966 4.2,2.5 1.466,0.533 2.734,0.8 3.8,0.8 h 9.101 z m 54.299,72.4 c -59.647,0 -108,-48.353 -108,-108 0,-59.647 48.353,-108 108,-108 59.646,0 108,48.353 108,108 0,59.647 -48.354,108 -108,108" /></g><g
           transform="translate(103.916,80.3525)"
           id="g854"><path
             id="path856"
             d="m 0,0 c -1.528,-1.528 -3.355,-2.291 -5.479,-2.291 -2.125,0 -3.953,0.763 -5.478,2.291 -1.528,1.525 -2.291,3.353 -2.291,5.479 0,1.195 0.265,2.322 0.797,3.386 0.264,0.663 0.928,1.659 1.992,2.989 1.858,2.655 3.119,5.045 3.785,7.171 0.131,0.663 0.529,0.996 1.195,0.996 0.664,0 1.062,-0.333 1.196,-0.996 0.663,-2.126 1.924,-4.516 3.785,-7.171 C 0.563,10.524 1.227,9.528 1.494,8.865 2.023,7.801 2.291,6.674 2.291,5.479 2.291,3.353 1.525,1.525 0,0 M 21.217,37.354 C 17.363,42.798 14.509,47.181 12.65,50.502 9.329,56.345 6.739,62.455 4.881,68.83 4.747,69.229 4.482,69.428 4.084,69.428 3.686,69.428 3.418,69.229 3.287,68.83 1.426,62.586 -1.096,56.544 -4.283,50.701 -6.275,47.38 -9.198,42.997 -13.049,37.553 c -3.586,-5.18 -5.976,-9.033 -7.172,-11.555 -1.992,-4.118 -2.988,-8.168 -2.988,-12.152 0,-4.915 1.227,-9.463 3.686,-13.647 2.456,-4.183 5.777,-7.505 9.96,-9.961 4.184,-2.456 8.732,-3.685 13.647,-3.685 4.912,0 9.463,1.229 13.646,3.685 4.184,2.456 7.502,5.778 9.961,9.961 2.456,4.184 3.686,8.732 3.686,13.647 0,4.115 -0.996,8.168 -2.988,12.152 -1.196,2.522 -3.586,6.307 -7.172,11.356" /></g></g></g></g></svg>
