<?xml version="1.0" encoding="UTF-8" standalone="no"?>
<svg
   height="85.800003"
   width="454.50735"
   xml:space="preserve"
   viewBox="0 0 454.50735 85.800003"
   y="0px"
   x="0px"
   id="layer"
   version="1.1"><metadata
   id="metadata19"></metadata><defs
   id="defs17" />
<style
   id="style2"
   type="text/css">
	.st0{fill:#008BD5;}
	.st1{fill:#C8C9CA;}
</style>

<path
   id="path6"
   d="m 322.5,0.6 h -21.6 c -4.9,0 -9,4 -9,9 v 31.8 c 0,4.9 4,9 9,9 h 21.6 c 4.9,0 9,-4 9,-9 V 9.6 c 0,-5 -4.1,-9 -9,-9 m -4.9,35.1 c 0,1.9 -1.5,3.4 -3.4,3.4 h -5.1 c -1.9,0 -3.4,-1.5 -3.4,-3.4 V 15.4 c 0,-1.9 1.5,-3.4 3.4,-3.4 h 5.1 c 1.9,0 3.4,1.5 3.4,3.4 z m 87.7,14.6 H 390.9 V 0.6 h 14.4 z m 24.6,-32 h 6.7 c 2.3,0 3.8,-1 3.6,-3.2 V 0.6 h 14.3 v 12.8 c 0.2,4.8 -3.7,8.8 -8.4,9.3 v 0 c 4,0.8 8.4,4.6 8.4,9.1 v 18.4 h -14.3 v -17 C 440.4,31.1 438.9,30 436.7,30 H 430 V 50.2 H 416 V 0.5 h 14 V 18.3 Z M 239,14.2 H 228.4 V 50.3 H 214.2 V 14.2 H 203.6 V 0.6 H 239 Z M 142.7,0.7 c 0,0 0.5,0 1.1,0.1 4.4,0.8 6.6,4.9 6.6,9.3 v 7.4 c 0.4,4.8 -3.7,8.9 -8.1,9.9 v 0 c 4.1,0.6 8.1,4.3 8.1,8.8 v 14 H 136 V 36.8 c 0.2,-2.1 -1.3,-3.6 -3.6,-3.6 h -4.2 V 22.5 h 5.7 c 2,0 3.6,-1.3 3.6,-3.5 v -3.5 c 0,-2 -1.2,-3.3 -3.1,-3.5 -0.3,0 -0.6,0 -0.6,0 h -8.1 V 50.2 H 110.9 V 0.5 l 31.8,0.2 m 133.3,0 c 0,0 0.5,0 1.1,0.1 4.4,0.8 6.6,4.9 6.6,9.3 v 7.4 c 0.4,4.8 -3.7,8.9 -8.1,9.9 v 0 c 4.1,0.6 8.1,4.3 8.1,8.8 v 14 H 269.3 V 36.8 c 0.2,-2.1 -1.3,-3.6 -3.6,-3.6 h -4.2 V 22.5 h 5.7 c 2,0 3.6,-1.3 3.6,-3.5 v -3.5 c 0,-2 -1.2,-3.3 -3,-3.5 -0.3,0 -0.6,0 -0.6,0 h -8 V 50.2 H 244.4 V 0.5 L 276,0.7 M 198.2,0.6 v 39.7 c 0,5.6 -4.5,10.1 -10.1,10.1 h -19.4 c -5.6,0 -10.1,-4.5 -10.1,-10.1 V 0.6 h 13.9 v 34.9 c 0,1.9 1.5,3.4 3.4,3.4 h 5.1 c 1.9,0 3.4,-1.5 3.4,-3.4 V 0.6 Z M 341.1,50.4 V 10.7 c 0,-5.6 4.5,-10.1 10.1,-10.1 h 19.4 c 5.6,0 10.1,4.5 10.1,10.1 V 50.4 H 366.8 V 15.5 c 0,-1.9 -1.5,-3.4 -3.4,-3.4 h -5.1 c -1.9,0 -3.4,1.5 -3.4,3.4 v 34.9 z"
   class="st0" />
<path
   id="path8"
   d="m 121.2,72 h -6.9 v 3.9 h 5.7 v 2.8 h -5.7 v 4.1 h 7.3 v 2.8 H 111.1 V 69.3 h 10.1 z m 9.5,-2.7 h -3.3 v 16.3 h 10.1 v -2.8 h -6.8 z m 22.3,0 h -10.1 v 16.3 h 10.5 v -2.8 h -7.3 v -4.1 h 5.7 v -2.8 h -5.7 V 72 H 153 Z M 168.6,80 c -0.3,1.7 -1.1,3.2 -3,3.2 -2.8,0 -3.4,-3.7 -3.4,-5.8 0,-2.1 0.6,-5.8 3.4,-5.8 2,0 2.7,1.5 3,3.2 l 3.1,-0.4 c -0.5,-3.5 -2.8,-5.4 -6.1,-5.4 -4.7,0 -6.7,4.3 -6.7,8.4 0,4.1 2.1,8.4 6.7,8.4 3.4,0 5.6,-2 6.1,-5.4 z m 19.6,-10.7 h -11.7 v 2.8 h 4.2 V 85.6 H 184 V 72.1 h 4.2 z m 5.1,0 v 16.3 h 3.3 v -6.8 h 2.5 l 2.9,6.8 h 3.4 l -3.2,-7.4 c 1.7,-0.7 2.8,-2.3 2.8,-4.1 0,-2.1 -1.5,-4.8 -5.2,-4.8 z m 3.2,6.7 v -4 h 1.2 c 1.6,0 3.8,-0.2 3.8,2.1 0,2 -2.2,1.9 -3.6,1.9 z m 27.5,1.4 c 0,-4.1 -2.1,-8.4 -6.7,-8.4 -4.6,0 -6.7,4.3 -6.7,8.4 0,4.1 2.1,8.4 6.7,8.4 4.6,0 6.7,-4.3 6.7,-8.4 m -10.1,0 c 0,-2.1 0.6,-5.8 3.4,-5.8 2.8,0 3.4,3.7 3.4,5.8 0,2.1 -0.6,5.8 -3.4,5.8 -2.9,0.1 -3.4,-3.7 -3.4,-5.8 m 15.8,-8.1 v 16.3 h 3.3 v -13.1 0 l 6.2,13.1 h 3.5 V 69.3 h -3.3 v 10.8 0 l -4.9,-10.8 z m 19,16.3 H 252 V 69.3 h -3.3 z M 267.4,80 c -0.3,1.7 -1.1,3.2 -3,3.2 -2.8,0 -3.4,-3.7 -3.4,-5.8 0,-2.1 0.6,-5.8 3.4,-5.8 2,0 2.7,1.5 3,3.2 l 3.1,-0.4 C 270,70.9 267.7,69 264.4,69 c -4.7,0 -6.7,4.3 -6.7,8.4 0,4.1 2.1,8.4 6.7,8.4 3.4,0 5.6,-2 6.1,-5.4 z m 19.4,-6.5 c -0.3,-2.7 -2.3,-4.5 -5.1,-4.5 -2.8,0 -5.3,2.1 -5.3,5 0,5.6 7.7,3.7 7.7,6.9 0,1.4 -1.1,2.1 -2.3,2.1 -1.5,0 -2.3,-1 -2.6,-2.4 l -3.3,0.5 c 0.5,3.2 2.7,4.7 5.8,4.7 4,0 5.5,-3 5.5,-5 0,-6.1 -7.7,-4 -7.7,-7.2 0,-1.1 0.9,-1.9 2,-1.9 1.3,0 1.9,1.2 2.3,2.3 z m 33.4,-4.2 H 317 l -2.1,11.5 v 0 l -2,-11.5 h -3.6 l -2,11.5 v 0 l -2,-11.5 h -3.2 l 3.4,16.3 h 3.4 l 2.2,-11.3 v 0 l 2.2,11.3 h 3.4 z m 17.9,8.1 c 0,-4.1 -2.1,-8.4 -6.7,-8.4 -4.7,0 -6.7,4.3 -6.7,8.4 0,4.1 2.1,8.4 6.7,8.4 4.6,0 6.7,-4.3 6.7,-8.4 m -10.1,0 c 0,-2.1 0.6,-5.8 3.4,-5.8 2.8,0 3.4,3.7 3.4,5.8 0,2.1 -0.6,5.8 -3.4,5.8 -2.9,0.1 -3.4,-3.7 -3.4,-5.8 m 15.8,-8.1 v 16.3 h 3.3 v -6.8 h 2.5 l 2.9,6.8 h 3.4 l -3.3,-7.4 c 1.7,-0.7 2.8,-2.3 2.8,-4.1 0,-2.1 -1.5,-4.8 -5.2,-4.8 z M 347,76 v -4 h 1.2 c 1.6,0 3.8,-0.2 3.8,2.1 0,2 -2.2,1.9 -3.6,1.9 z m 17.6,-6.7 h -3.3 v 16.3 h 10.1 v -2.8 h -6.8 z m 12.2,0 v 16.3 h 5.1 c 4.9,0 7.3,-3.6 7.3,-8.2 0,-4.6 -2.2,-8.2 -8.4,-8.2 h -4 z M 380,82.8 V 72 h 1.2 c 3.1,0 4.5,1.6 4.5,5 0,4.1 -1.6,5.8 -4.2,5.8 z m 31.8,-13.5 h -3.2 l -2.1,11.5 v 0 l -2,-11.5 h -3.6 l -2,11.5 v 0 L 397,69.3 h -3.2 l 3.4,16.3 h 3.4 l 2.2,-11.3 v 0 l 2.2,11.3 h 3.4 z m 4.8,16.3 h 3.3 V 69.3 h -3.3 z m 9.3,-16.3 v 16.3 h 5.1 c 4.9,0 7.3,-3.6 7.3,-8.2 0,-4.6 -2.2,-8.2 -8.4,-8.2 h -4 z m 3.2,13.5 V 72 h 1.2 c 3.1,0 4.5,1.6 4.5,5 0,4.1 -1.6,5.8 -4.2,5.8 z m 25,-13.5 H 444 v 16.3 h 10.5 v -2.8 h -7.3 v -4.1 h 5.7 v -2.8 h -5.7 V 72 h 6.9 z"
   class="st1" />
<path
   id="path10"
   d="m 39.4,7.4 h -32 v 70.7 h 32 v 7.4 H 0 V 0 h 39.4 z m 7.2,0 h 32 V 78.1 H 46.5 v 7.4 H 85.9 V 0 H 46.5 v 7.4 z m -7.2,7.3 H 14.5 V 39.1 H 39.3 V 14.7 Z m 32,0 H 46.6 v 24.4 h 24.8 z m 0,31.7 H 46.6 v 24.4 h 24.8 z m -32,0 H 14.5 V 70.8 H 39.3 V 46.4 Z"
   class="st1" />

</svg>
