<svg version="1.1" viewBox="0 0 158.91 66.775" xml:space="preserve" xmlns="http://www.w3.org/2000/svg"><g transform="matrix(1.1039 0 0 -1.1039 -140.98 213.07)"><g transform="matrix(.036702 0 0 .036702 126.41 96.371)"><g transform="scale(10)" fill="#ffffff"><text transform="matrix(1 0 0 -1 107.24 147.41)" style="line-height:0%"><tspan x="0 30.364908 55.683704 68.331604 80.980011 93.628418 121.43701 132.26222 165.13821 190.45663 218.26523 235.98204 263.79065" y="0" fill="#ffffff" font-family="Helvetica" font-size="45.525px" font-weight="bold">Vall d'Hebron</tspan></text>

<text transform="matrix(1 0 0 -1 107.24 101.88)" style="line-height:0%"><tspan x="0 8.432126 26.971228 43.85014 53.956593 62.388718 72.495171 91.034271 101.14072 109.57335 128.11244 144.99132 153.42297 175.341 192.21988 209.09877 225.97768 237.78818" y="0" fill="#ffffff" font-family="Helvetica" font-size="30.35px" font-weight="bold">Institut de Recerca</tspan></text>

</g><path d="m1103.5 2632.4c47.13-4.86 93.21-45.46 110.85-89.32l6.96-31.83 2.33-349.55c3.11-7.66 5.31-16.59 13.15-21.71 13.86-3.66 22.53 5.71 33.39 10.09 108.74 81.83 201.12 203.12 325.58 247.77 37.75 9.93 83.87 6.82 117.07-11.67 43.34-20.15 80.54-55.87 124.78-75.35 29.63-9.83 68.72-18.79 96.95 1.62 55.35 38.65 139.18 50.69 203.1 20.93-95.4-13.33-163.5-92.35-242.67-143.67-22.15-12-54.12-22.49-77.5-7-52.53 26.46-93.48 80.24-154.27 85.43-60.13 10.34-101.99-27.71-144.19-62.17-96.14-77.94-180.05-184.94-303.17-197.24-40.6 2.64-79.54 17.38-102.32 54.39-13.31 19.49-19.27 42.02-20.93 66.02l-0.79 345.62c-4.58 10.49-14.4 19.6-24.04 25.64l-16.22 2.3-323.99-0.78c-12.449-6.38-27.414-17.86-29.453-32.64l-0.786-344.81c-8.214-50.78-55.714-101.66-106.25-112.62l-41.817-2.34-347.99-0.78c-14.309-2.25-27.156-11.19-35.641-24.08l-2.332-9.3 0.778-299.83c6.027-12.85 19.812-24.12 33.343-27.19l381.25-1.56c52.871-3.34 98.25-53.05 115.55-100.14l3.895-27.19-0.786-497.07c-7.257-23.271-33.042-34.759-55.789-37.271-26.449-0.597-52.054 4.071-67.464 26.381-6.891 13.63-6.485 29.7-6.188 45.83l-0.777 431.82c-3.778 9.49-7.035 19.79-17.074 25.64l-10.082 2.34-392.16 0.77c-45.152 5.78-88.168 44.98-104.65 87l-7.7148 30.26 0.7421 391.46c8.1211 46.27 46.274 93.65 92.258 107.98 11.41 4.12 24.406 4.89 37.195 5.41h378.96c10.086 7.41 21.489 18.53 22.528 31.87l0.777 344.02c6.344 46.83 49.906 92.44 92.988 109.51 11.606 4.86 24.754 6.42 37.973 7.79l404.65-0.78" fill="#91309c" fill-rule="evenodd"/></g></g></svg>
